<svg id="visual" viewBox="0 0 900 600" width="900" height="600" xmlns="http://www.w3.org/2000/svg" xmlns:xlink="http://www.w3.org/1999/xlink" version="1.1"><rect x="0" y="0" width="900" height="600" fill="#931C1C"></rect><path d="M0 384L129 362L257 404L386 370L514 383L643 433L771 426L900 400L900 601L771 601L643 601L514 601L386 601L257 601L129 601L0 601Z" fill="#f5730a"></path><path d="M0 472L129 416L257 465L386 434L514 466L643 475L771 398L900 432L900 601L771 601L643 601L514 601L386 601L257 601L129 601L0 601Z" fill="#da5b09"></path><path d="M0 509L129 457L257 462L386 459L514 468L643 452L771 485L900 511L900 601L771 601L643 601L514 601L386 601L257 601L129 601L0 601Z" fill="#be4407"></path><path d="M0 490L129 517L257 507L386 499L514 495L643 513L771 519L900 521L900 601L771 601L643 601L514 601L386 601L257 601L129 601L0 601Z" fill="#a32d04"></path><path d="M0 552L129 553L257 573L386 525L514 531L643 565L771 525L900 525L900 601L771 601L643 601L514 601L386 601L257 601L129 601L0 601Z" fill="#871400"></path></svg>